<svg width="24" height="18" viewBox="0 0 24 18" fill="none" xmlns="http://www.w3.org/2000/svg">
<path d="M23.7911 2.28636L8.82274 17.7838C8.69017 17.9222 8.50971 18 8.32144 18C8.13318 18 7.95272 17.9222 7.82014 17.7838L0.20885 9.90348C0.0751849 9.76622 0 9.57938 0 9.38447C0 9.18955 0.0751849 9.00271 0.20885 8.86545L1.19733 7.84203C1.3299 7.70365 1.51037 7.6258 1.69863 7.6258C1.88689 7.6258 2.06736 7.70365 2.19993 7.84203L8.31438 14.1726L21.8001 0.210293C22.0794 -0.0700977 22.5233 -0.0700977 22.8027 0.210293L23.7911 1.24833C23.9248 1.38559 24 1.57243 24 1.76734C24 1.96226 23.9248 2.1491 23.7911 2.28636Z" fill="#0B68B1"/>
</svg>
