<svg width="26" height="37" viewBox="0 0 26 37" fill="none" xmlns="http://www.w3.org/2000/svg">
<g id="ExploreIcon">
<rect id="Rectangle 1" x="8" y="35" width="13" height="2" fill="black"/>
<path id="Line 2" d="M14.5 28V36" stroke="black"/>
<path id="Ellipse 3" d="M14.5 32C11.1863 32 8.5 33.7909 8.5 36H20.5C20.5 33.7909 17.8137 32 14.5 32Z" fill="white" stroke="black" stroke-linecap="round" stroke-linejoin="round"/>
<path id="Ellipse 2" d="M13.4272 1.66527C13.459 1.91394 13.2751 2.15619 12.9924 2.18965C11.8563 2.32412 10.719 2.60244 9.60595 3.03554C2.76954 5.69564 -0.541398 13.1883 2.23279 19.7761C5.00468 26.3585 12.794 29.5236 19.6259 26.8652C20.8464 26.3903 21.9537 25.7621 22.9339 25.0129C23.1533 24.8453 23.4731 24.8825 23.6442 25.0894C23.8104 25.2903 23.7783 25.5821 23.5647 25.7454C22.5103 26.5512 21.3194 27.2268 20.008 27.7371C12.6477 30.601 4.27485 27.1835 1.30187 20.1236C-1.66882 13.0692 1.86814 5.02589 9.2239 2.16371C10.4199 1.69834 11.6438 1.39862 12.8677 1.25375C13.1519 1.22011 13.395 1.41449 13.4272 1.66527Z" stroke="black" stroke-width="0.5" stroke-linecap="round" stroke-linejoin="round"/>
<line id="Line 1" x1="7.45315" y1="0.788691" x2="20.5543" y2="28.8842" stroke="black"/>
<path id="Ellipse 1" d="M25.5 15C25.5 21.0751 20.5751 26 14.5 26C8.42487 26 3.5 21.0751 3.5 15C3.5 8.92487 8.42487 4 14.5 4C20.5751 4 25.5 8.92487 25.5 15Z" fill="#F6F6F6" stroke="black" stroke-linecap="round" stroke-linejoin="round"/>
<path id="Vector 2" fill-rule="evenodd" clip-rule="evenodd" d="M20.8429 13.0471C20.9402 13.1089 21 13.2222 21 13.3446V15.7815C21 15.831 20.9902 15.8798 20.9713 15.9248L20.2196 17.7108V19.4369C20.2196 19.5675 20.1517 19.6868 20.0442 19.7452L17.8006 20.9636C17.7119 21.0118 17.6075 21.0121 17.5185 20.9646C17.4296 20.917 17.3662 20.8269 17.3473 20.7212L17.0058 18.814C16.9943 18.7496 16.9999 18.683 17.0221 18.6219L17.6223 16.967L17.3472 15.4232C17.333 15.3432 17.3452 15.2604 17.3819 15.1893L18.0647 13.8649C18.114 13.7694 18.2021 13.7049 18.3022 13.6914L19.8011 13.4879L20.5272 13.0443C20.6254 12.9842 20.7456 12.9853 20.8429 13.0471ZM20.3655 13.9338L20.0579 14.1217C20.022 14.1437 19.9825 14.1578 19.9417 14.1633L18.54 14.3536L17.9922 15.4161L18.2628 16.9345C18.2743 16.9988 18.2686 17.0654 18.2465 17.1263L17.6464 18.7811L17.8904 20.1443L19.5851 19.224V17.6357C19.5851 17.5863 19.5949 17.5374 19.6138 17.4925L20.3655 15.7065V13.9338Z" fill="black" stroke="black" stroke-width="0.5" stroke-linecap="round" stroke-linejoin="round"/>
<path id="Vector 1" fill-rule="evenodd" clip-rule="evenodd" d="M11.0198 8.61122C11.1198 8.50348 11.2818 8.46999 11.4199 8.52853L14.2925 9.74682C14.2971 9.74878 14.3017 9.75085 14.3062 9.753L15.8088 10.4672C15.9593 10.5387 16.0338 10.7029 15.9852 10.856L15.1455 13.5026C15.1015 13.6414 14.967 13.7364 14.8145 13.7364H13.2804L13.4023 14.4085L14.9723 15.1738C15.0672 15.2201 15.1343 15.3053 15.1542 15.4049C15.1741 15.5045 15.1445 15.6073 15.0741 15.6833L13.2157 17.6907V18.869C13.2157 18.9647 13.1719 19.0557 13.0956 19.1181L11.5046 20.4204C11.3834 20.5196 11.2063 20.5268 11.0766 20.4378L9.49652 19.353L7.69607 18.3094C7.62257 18.2668 7.56843 18.1997 7.54425 18.1212L7.01392 16.3988C6.99008 16.3213 6.99703 16.2383 7.03344 16.1654L7.80662 14.6181L7.02723 12.8634C6.9872 12.7733 6.99148 12.6709 7.0389 12.5841L8.23214 10.3996C8.23944 10.3863 8.24769 10.3734 8.25685 10.3611L9.00815 9.35287C9.07296 9.26588 9.17814 9.21418 9.29027 9.21418H10.4601L11.0198 8.61122ZM11.3702 9.22719L10.8753 9.76027C10.8097 9.83097 10.7153 9.87148 10.6161 9.87148H9.46906L8.83485 10.7226L7.72742 12.75L8.50392 14.4982C8.54228 14.5846 8.54002 14.6824 8.49771 14.767L7.71455 16.3343L8.17029 17.8145L9.86801 18.7985C9.87568 18.8029 9.88316 18.8077 9.89044 18.8127L11.2602 19.753L12.5243 18.7183V17.5667C12.5243 17.4868 12.5549 17.4096 12.6104 17.3496L14.2616 15.566L12.9332 14.9185C12.8365 14.8713 12.7687 14.7837 12.7503 14.6819L12.5293 13.4636C12.512 13.3681 12.5399 13.2702 12.6056 13.196C12.6713 13.1219 12.768 13.0791 12.87 13.0791H14.5577L15.2391 10.9313L14.0038 10.3441L11.3702 9.22719Z" fill="black" stroke="black" stroke-width="0.5" stroke-linecap="round" stroke-linejoin="round"/>
</g>
</svg>
