<svg width="25" height="35" viewBox="0 0 25 35" fill="none" xmlns="http://www.w3.org/2000/svg">
<path d="M13.6471 30.1765C10.5283 30.1765 8 31.862 8 33.9412H19.2941C19.2941 31.862 16.7658 30.1765 13.6471 30.1765Z" stroke="#434343" stroke-linecap="round" stroke-linejoin="round"/>
<path d="M13.647 26.4118V30.4118" stroke="#434343"/>
<path d="M12.6227 1.62801C12.6516 1.85341 12.4849 2.07447 12.2264 2.10506C11.1559 2.23177 10.0843 2.49402 9.03556 2.9021C2.59396 5.40857 -0.526475 12.4691 2.08789 18.6774C4.69997 24.8802 12.0397 27.8622 18.4768 25.3575C19.6267 24.91 20.6701 24.318 21.5937 23.6121C21.794 23.459 22.0861 23.4932 22.2421 23.6817C22.3931 23.8643 22.3641 24.1294 22.1696 24.2781C21.1783 25.0357 20.0587 25.6708 18.8257 26.1506C11.9055 28.8433 4.03371 25.6299 1.23884 18.993C-1.55373 12.3615 1.77091 4.79992 8.68666 2.10896C9.81112 1.67142 10.9618 1.38963 12.1125 1.25343C12.3725 1.22265 12.5936 1.40049 12.6227 1.62801Z" stroke="#434343" stroke-width="0.5" stroke-linecap="round" stroke-linejoin="round"/>
<line x1="19.6599" y1="27.7429" x2="17.5469" y2="23.2113" stroke="#434343"/>
<line x1="7.04141" y1="0.788691" x2="9.1545" y2="5.32023" stroke="#434343"/>
<path d="M24 14.1765C24 19.8942 19.3648 24.5294 13.6471 24.5294C7.9293 24.5294 3.29413 19.8942 3.29413 14.1765C3.29413 8.45869 7.9293 3.82352 13.6471 3.82352C19.3648 3.82352 24 8.45869 24 14.1765Z" stroke="#434343" stroke-linecap="round" stroke-linejoin="round"/>
<path d="M16.3594 14.3547L16.1372 14.2401L16.7799 12.9936C16.8608 12.8367 17.011 12.7217 17.192 12.6971L18.5508 12.5126L19.1894 12.1224M16.3594 14.3547L19.1894 12.1224M16.3594 14.3547L16.1372 14.2401C16.0772 14.3566 16.0578 14.4903 16.0807 14.6186L16.3278 16.0056L15.7858 17.5001C15.7498 17.5993 15.7409 17.7066 15.7594 17.8102L16.0807 19.6052C16.111 19.7744 16.214 19.9272 16.3701 20.0106C16.5281 20.0951 16.7154 20.0945 16.8728 20.009L18.9845 18.8622C19.1726 18.76 19.2802 18.5593 19.2802 18.3524V16.7782L19.9681 15.1439L19.7377 15.0469L19.9681 15.1439C19.999 15.0704 20.0147 14.9914 20.0147 14.912V12.6185C20.0147 12.4241 19.9199 12.2348 19.7509 12.1275M16.3594 14.3547L19.7509 12.1275M19.1894 12.1224C19.3633 12.0162 19.579 12.0183 19.7509 12.1275M19.1894 12.1224L19.7509 12.1275M18.8023 13.6368C18.8419 13.6314 18.8805 13.6215 18.9175 13.6076V14.791L18.2296 16.4253C18.1987 16.4988 18.183 16.5778 18.183 16.6572V18.0033L17.0231 18.6332L16.8663 17.7572L17.4082 16.2629C17.4441 16.1639 17.4531 16.0568 17.4347 15.9533L17.1948 14.6075L17.612 13.7984L18.8023 13.6368Z" stroke="#434343" stroke-width="0.5" stroke-linecap="round" stroke-linejoin="round"/>
<path d="M12.7987 13.2372H13.9431C14.1885 13.2372 14.4165 13.0839 14.4929 12.8428L15.2832 10.3519C15.3689 10.082 15.2343 9.8024 14.9862 9.6845L13.572 9.01234L13.4647 9.23813L13.572 9.01234C13.5646 9.00879 13.557 9.00539 13.5494 9.00216C13.5494 9.00216 13.5494 9.00216 13.5494 9.00216L10.8457 7.85553C10.6215 7.76044 10.356 7.81281 10.1883 7.99344L9.73575 8.48101H8.74381C8.56243 8.48101 8.38784 8.56451 8.27781 8.71216L7.57071 9.66109L7.77117 9.81047L7.57071 9.66109C7.55514 9.68198 7.54103 9.70396 7.52851 9.72688C7.52851 9.72688 7.52851 9.72688 7.52851 9.72688L6.40546 11.7829L6.62487 11.9027L6.40546 11.7829C6.32365 11.9327 6.31601 12.1108 6.38541 12.2671L7.07109 13.8108L6.3961 15.1616L6.61973 15.2734L6.3961 15.1616C6.33327 15.2873 6.32096 15.4318 6.36243 15.5665L6.60136 15.493L6.36243 15.5665L6.86156 17.1876C6.90353 17.3239 6.99639 17.4371 7.11801 17.5075L8.8043 18.485L10.2835 19.5005C10.4967 19.6469 10.7856 19.6357 10.9862 19.4715L10.8279 19.278L10.9862 19.4715L12.4836 18.2458C12.6114 18.1412 12.6884 17.9855 12.6884 17.8179V16.8069L14.3708 14.9895C14.4902 14.8605 14.5428 14.6829 14.508 14.5086C14.4732 14.3349 14.3574 14.1915 14.2011 14.1153L14.0916 14.3401L14.2011 14.1153L12.8374 13.4505L12.7987 13.2372ZM13.0106 14.7864L11.6852 16.2181C11.5913 16.3196 11.5376 16.4525 11.5376 16.5922V17.5577L10.5847 18.3377L9.45017 17.5588C9.43804 17.5504 9.42562 17.5426 9.41294 17.5353L9.41293 17.5352L7.89981 16.6582L7.52918 15.4545L8.2215 14.069C8.29463 13.9226 8.29866 13.7524 8.23219 13.6027L7.55151 12.0703L8.52614 10.286L9.03756 9.59964H9.99164C10.1523 9.59964 10.3083 9.53417 10.4189 9.41505L10.7652 9.0419L13.0776 10.0226L14.0385 10.4793L13.5184 12.1186H12.113C11.9478 12.1186 11.7878 12.1877 11.677 12.3128C11.5655 12.4386 11.516 12.6079 11.5463 12.7751L11.7543 13.9217C11.7865 14.0994 11.9037 14.2468 12.0629 14.3245L13.0106 14.7864Z" stroke="#434343" stroke-width="0.5" stroke-linecap="round" stroke-linejoin="round"/>
</svg>
