<svg width="24" height="17" viewBox="0 0 24 17" fill="none" xmlns="http://www.w3.org/2000/svg">
<circle cx="12" cy="8.59222" r="3.25" stroke="#0B68B1" stroke-width="1.5"/>
<path d="M21.7235 10.4389C20.6985 11.5732 19.2682 12.9538 17.58 14.0465C15.889 15.141 13.986 15.9166 12 15.9166C10.014 15.9166 8.11103 15.141 6.42 14.0465C4.73176 12.9538 3.30146 11.5732 2.2765 10.4389C1.42822 9.50012 1.42822 8.13067 2.2765 7.19192C3.30146 6.05764 4.73176 4.67703 6.42 3.58433C8.11103 2.48981 10.014 1.71417 12 1.71417C13.986 1.71417 15.889 2.48981 17.58 3.58433C19.2682 4.67703 20.6985 6.05764 21.7235 7.19192C22.5718 8.13067 22.5718 9.50012 21.7235 10.4389Z" stroke="#0B68B1" stroke-width="1.5"/>
</svg>
