<svg width="24" height="19" viewBox="0 0 24 19" fill="none" xmlns="http://www.w3.org/2000/svg">
<path d="M4 1.66663L20 17.6666" stroke="#0B68B1" stroke-width="1.5" stroke-linecap="round"/>
<circle cx="12" cy="9.59222" r="3.25" stroke="#0B68B1" stroke-width="1.5"/>
<path d="M21.7235 11.4389C20.6985 12.5732 19.2682 13.9538 17.58 15.0465C15.889 16.141 13.986 16.9166 12 16.9166C10.014 16.9166 8.11103 16.141 6.42 15.0465C4.73176 13.9538 3.30146 12.5732 2.2765 11.4389C1.42822 10.5001 1.42822 9.13067 2.2765 8.19192C3.30146 7.05764 4.73176 5.67703 6.42 4.58433C8.11103 3.48981 10.014 2.71417 12 2.71417C13.986 2.71417 15.889 3.48981 17.58 4.58433C19.2682 5.67703 20.6985 7.05764 21.7235 8.19192C22.5718 9.13067 22.5718 10.5001 21.7235 11.4389Z" stroke="#0B68B1" stroke-width="1.5"/>
</svg>
