<svg width="38" height="42" viewBox="0 0 38 42" fill="none" xmlns="http://www.w3.org/2000/svg">
<path d="M12.25 32.1111V34.3333C12.25 35.2089 12.4246 36.0758 12.7638 36.8847C13.103 37.6933 13.6002 38.4282 14.227 39.0473C14.8539 39.6664 15.598 40.1576 16.4168 40.4924C17.2358 40.8276 18.1135 41 19 41C19.8865 41 20.7642 40.8276 21.5832 40.4924C22.402 40.1576 23.1461 39.6664 23.7729 39.0473C24.3998 38.4282 24.897 37.6933 25.2361 36.8847C25.5754 36.0758 25.75 35.2089 25.75 34.3333V32.1111" stroke="#0B68B1" stroke-width="1.5" stroke-linecap="round" stroke-linejoin="round"/>
<path d="M37 32.1111C37 32.1111 32.5 21 32.5 14.3333C32.5 7.07111 26.353 1 19 1C11.647 1 5.5 7.07111 5.5 14.3333C5.5 23.2222 1 32.1111 1 32.1111H37Z" stroke="#0B68B1" stroke-width="1.5" stroke-linecap="round" stroke-linejoin="round"/>
</svg>
