<svg width="26" height="26" viewBox="0 0 26 26" fill="none" xmlns="http://www.w3.org/2000/svg">
<path d="M13 17C15.2092 17 17 15.2091 17 13C17 10.7909 15.2092 9 13 9C10.7909 9 9.00003 10.7909 9.00003 13C9.00003 15.2091 10.7909 17 13 17Z" stroke="black" stroke-width="1.5" stroke-linecap="round" stroke-linejoin="round"/>
<path fill-rule="evenodd" clip-rule="evenodd" d="M24.7112 8.15721L23.297 5.84927C22.7067 4.88979 21.4161 4.56564 20.4002 5.12318L19.6999 5.49919C18.2858 6.26418 16.5285 5.3047 16.5285 3.76175V2.99676C16.5285 1.89465 15.5811 1 14.4141 1H11.5859C10.4189 1 9.47158 1.89465 9.47158 2.99676V3.76175C9.47158 5.3047 7.71418 6.26418 6.30005 5.49919L5.59988 5.12318C4.58391 4.56564 3.29332 4.90275 2.70296 5.84927L1.28883 8.15721C0.698471 9.11669 1.05543 10.3355 2.05768 10.893L2.75789 11.269C4.17202 12.034 4.17202 13.966 2.75789 14.7309L2.05768 15.107C1.0417 15.6645 0.698471 16.8833 1.28883 17.8428L2.70296 20.1507C3.29332 21.1102 4.58391 21.4344 5.59988 20.8768L6.30005 20.5008C7.71418 19.7358 9.47158 20.6953 9.47158 22.2382V23.0032C9.47158 24.1053 10.4189 25 11.5859 25H14.4141C15.5811 25 16.5285 24.1053 16.5285 23.0032V22.2382C16.5285 20.6953 18.2858 19.7358 19.6999 20.5008L20.4002 20.8768C21.4161 21.4344 22.7067 21.0972 23.297 20.1507L24.7112 17.8428C25.3015 16.8833 24.9446 15.6645 23.9423 15.107L23.2422 14.7309C21.828 13.966 21.828 12.034 23.2422 11.269L23.9423 10.893C24.9583 10.3355 25.3015 9.10372 24.7112 8.15721Z" stroke="black" stroke-width="1.5" stroke-linecap="round" stroke-linejoin="round"/>
</svg>
